<?xml version="1.0" encoding="utf-8"?>
<!-- Generator: Adobe Illustrator 23.0.1, SVG Export Plug-In . SVG Version: 6.00 Build 0)  -->
<svg version="1.1" id="Layer_4" xmlns="http://www.w3.org/2000/svg" xmlns:xlink="http://www.w3.org/1999/xlink" x="0px" y="0px"
	 viewBox="0 0 1200 398" style="enable-background:new 0 0 1200 398;" xml:space="preserve">
<style type="text/css">
	.st0{fill:none;stroke:#979797;stroke-width:0.6275;stroke-miterlimit:10;stroke-dasharray:1.255,1.255;}
	.st1{fill:#4E59EB;}
	.st2{fill:none;stroke:#C1C1C1;stroke-width:2.4677;stroke-miterlimit:10;}
	.st3{fill:none;stroke:#C1C1C1;stroke-width:0.9943;stroke-miterlimit:10;}
	.st4{fill:#94FF4B;}
	.st5{fill:none;stroke:#BFBFBF;stroke-width:2.4857;stroke-miterlimit:10;}
	.st6{fill:none;stroke:#AFAFAF;stroke-width:0.3729;stroke-miterlimit:10;}
</style>
<g>
	<g>
		<polyline class="st0" points="511.81,355.19 286.55,202.99 266.47,319.07 738.99,88.78 932.89,285.19 931.01,171.61 
			760.32,298.37 600.94,339.78 312.91,154.67 387.58,96.31 642.98,279.54 		"/>
		<path class="st0" d="M738.99,89.41l-96.64,190.76L738.99,89.41z"/>
		<polyline class="st0" points="642.35,280.17 760.95,297.74 738.99,88.15 		"/>
	</g>
	<g>
		<g>
			<polygon class="st1" points="735.1,204.02 735.02,203.88 729.67,140.68 729.75,140.27 676.29,81.37 601.93,62.13 601.85,62.54 
				539.33,82.28 482.58,129.17 462.57,202.8 461.6,203.61 462.21,203.61 462.01,204.02 462.16,204.31 462.01,204.84 476.82,266.53 
				499.85,279.7 499.9,279.77 499.85,280.21 500.15,280.14 529.46,324.11 544.68,324.49 539.74,324.44 599.94,344.59 599.77,344.17 
				601.85,345.5 658.6,324.94 722.76,278.05 735.1,204.84 735.04,204.13 			"/>
		</g>
		<g>
			<g>
				<polygon class="st2" points="460.52,204.84 481.08,129.17 537.84,82.28 600.35,62.54 618.45,82.28 675.21,82.28 690.01,129.17 
					728.18,140.68 733.61,204.84 721.27,278.05 657.11,324.94 600.35,345.5 568.6,325.11 527.97,324.11 498.36,279.7 475.33,266.53 
									"/>
				<polygon class="st3" points="491.78,139.86 537.84,82.28 618.45,82.28 690.01,129.17 733.61,204.02 699.06,269.82 
					657.11,324.94 569.1,324.94 498.36,279.7 460.52,204.02 				"/>
				<polygon class="st3" points="507.41,204.02 491.78,139.86 553.47,128.35 618.45,82.28 630.79,143.15 690.01,129.17 
					674.38,203.2 699.06,269.82 628.32,277.23 551,268.18 498.36,280.21 				"/>
				<polyline class="st2" points="600.44,62.13 674.8,81.37 728.26,140.27 				"/>
				<polyline class="st3" points="568.69,324.52 550.59,267.77 506.99,203.61 553.06,127.93 630.38,144.39 673.97,203.61 
					627.91,276.82 656.7,324.52 				"/>
				<polyline class="st3" points="630.38,144.39 586.78,203.61 673.97,203.61 733.54,204.06 				"/>
				<polyline class="st3" points="630.38,276.82 586.78,203.61 550.59,267.77 				"/>
				<polyline class="st3" points="550.59,127.93 586.78,203.61 506.99,203.61 460.11,203.61 				"/>
				<line class="st2" x1="481.5" y1="127.93" x2="491.37" y2="140.27"/>
				<line class="st2" x1="706.58" y1="134.1" x2="673.97" y2="81.87"/>
				<polyline class="st2" points="538.25,324.44 598.45,344.59 590.48,324.94 				"/>
				<line class="st2" x1="523.45" y1="317.33" x2="520.74" y2="294.01"/>
				<polyline class="st3" points="479.15,165.77 473.55,203.61 476.35,235.68 				"/>
				<line class="st2" x1="721.11" y1="277.14" x2="699.23" y2="269.69"/>
			</g>
		</g>
		<circle class="st4" cx="586.63" cy="205.31" r="4.97"/>
		<circle class="st4" cx="552.83" cy="130.74" r="4.97"/>
		<circle class="st4" cx="630.38" cy="146.15" r="4.97"/>
		<circle class="st4" cx="674.13" cy="202.82" r="4.97"/>
		<circle class="st4" cx="629.38" cy="277.39" r="4.97"/>
		<circle class="st4" cx="549.84" cy="267.45" r="4.97"/>
		<circle class="st4" cx="507.59" cy="203.32" r="4.97"/>
		<circle class="st4" cx="492.67" cy="141.67" r="4.97"/>
		<circle class="st4" cx="690.53" cy="130.74" r="4.97"/>
		<circle class="st4" cx="617.95" cy="83.51" r="4.97"/>
		<circle class="st4" cx="569.73" cy="323.13" r="4.97"/>
		<circle class="st4" cx="473.78" cy="204.31" r="2.98"/>
		<circle class="st4" cx="699.48" cy="269.44" r="2.98"/>
		<g>
			<g>
				<polygon class="st5" points="425.09,201.61 451.57,104.19 524.63,43.83 605.11,18.41 628.41,43.83 701.47,43.83 720.53,104.19 
					769.66,119.01 776.66,201.61 760.77,295.85 678.18,356.21 605.11,382.69 564.23,356.43 511.93,355.15 473.8,297.97 
					444.15,281.03 				"/>
				<polygon class="st6" points="465.33,117.95 524.63,43.83 628.41,43.83 720.53,104.19 776.66,200.55 732.18,285.26 
					678.18,356.21 564.87,356.21 473.8,297.97 425.09,200.55 				"/>
				<polygon class="st6" points="485.45,200.55 465.33,117.95 544.75,103.13 628.41,43.83 644.29,122.19 720.53,104.19 
					700.42,199.49 732.18,285.26 641.11,294.8 541.58,283.15 473.8,298.64 				"/>
				<polyline class="st5" points="605.22,17.88 700.94,42.66 769.78,118.48 				"/>
				<polyline class="st6" points="564.34,355.68 541.05,282.62 484.92,200.02 544.22,102.6 643.76,123.78 699.89,200.02 
					640.59,294.27 677.65,355.68 				"/>
				<polyline class="st6" points="643.76,123.78 587.64,200.02 699.89,200.02 776.57,200.61 				"/>
				<polyline class="st6" points="643.76,294.27 587.64,200.02 541.05,282.62 				"/>
				<polyline class="st6" points="541.05,102.6 587.64,200.02 484.92,200.02 424.56,200.02 				"/>
				<line class="st6" x1="452.1" y1="102.6" x2="464.8" y2="118.48"/>
				<line class="st6" x1="741.86" y1="110.54" x2="699.89" y2="43.3"/>
				<polyline class="st6" points="525.16,355.57 602.66,381.52 592.4,356.21 				"/>
				<line class="st6" x1="506.1" y1="346.42" x2="502.62" y2="316.4"/>
				<polyline class="st6" points="449.08,151.31 441.86,200.02 445.47,241.31 				"/>
				<line class="st6" x1="760.57" y1="294.69" x2="732.41" y2="285.09"/>
			</g>
		</g>
	</g>
</g>
</svg>
