<?xml version="1.0" encoding="utf-8"?>
<!-- Generator: Adobe Illustrator 23.0.1, SVG Export Plug-In . SVG Version: 6.00 Build 0)  -->
<svg version="1.1" id="Layer_1" xmlns="http://www.w3.org/2000/svg" xmlns:xlink="http://www.w3.org/1999/xlink" x="0px" y="0px"
	 viewBox="0 0 1200 398" style="enable-background:new 0 0 1200 398;" xml:space="preserve">
<style type="text/css">
	.st0{fill:none;stroke:#979797;stroke-width:0.5982;stroke-miterlimit:10;stroke-dasharray:1.1963,1.1963;}
	.st1{fill:#4E59EB;}
	.st2{fill:none;stroke:#C1C1C1;stroke-width:2.3523;stroke-miterlimit:10;}
	.st3{fill:none;stroke:#C1C1C1;stroke-width:0.9478;stroke-miterlimit:10;}
	.st4{fill:none;stroke:#BCBCBC;stroke-width:2.3695;stroke-miterlimit:10;}
	.st5{fill:none;stroke:#BCBCBC;stroke-width:0.3687;stroke-miterlimit:10;}
	.st6{fill:#94FF4B;}
	.st7{fill:none;stroke:#FFFFFF;stroke-width:0.9478;stroke-miterlimit:10;}
</style>
<g>
	<g>
		<polyline class="st0" points="443.18,107.04 300.49,214.62 281.34,103.96 731.77,323.48 918.97,153.95 916.23,328.88 
			792.91,133.58 417.11,198.03 325.61,260.68 396.79,316.31 463.08,289.49 		"/>
		<path class="st0" d="M731.77,322.89l-92.12-181.84L731.77,322.89z"/>
		<polyline class="st0" points="639.65,141.04 752.7,124.29 731.77,324.08 		"/>
	</g>
	<g>
		<polygon class="st1" points="717.97,198.46 717.89,198.33 755.44,147.56 755.52,147.17 695.08,53.11 591.03,63.2 590.95,63.6 
			531.36,82.41 477.25,127.11 458.18,197.3 457.26,198.07 457.84,198.07 457.65,198.46 457.79,198.74 457.65,199.24 471.76,258.05 
			493.72,270.6 493.77,270.67 493.72,271.09 494,271.02 521.95,312.94 536.45,313.29 531.74,313.25 589.13,332.46 588.97,332.05 
			590.95,333.32 687.7,346.89 720.43,269.03 717.97,199.24 717.91,198.57 		"/>
		<g>
			<g>
				<polygon class="st2" points="456.23,199.24 475.83,127.11 529.93,82.41 589.53,63.6 606.78,82.41 694.05,53.98 674.99,127.11 
					754.02,147.56 716.55,199.24 719,269.03 686.28,346.89 589.53,333.32 559.26,313.89 520.53,312.94 492.3,270.6 470.34,258.05 
									"/>
				<polygon class="st3" points="486.02,137.3 529.93,82.41 606.78,82.41 674.99,127.11 716.55,198.46 683.62,261.19 686.28,346.89 
					559.73,313.72 492.3,270.6 456.23,198.46 				"/>
				<g>
					<polygon class="st3" points="500.92,198.46 494.79,173.28 486.88,165.09 490.57,155.95 486.02,137.3 510.35,132.76 
						519.1,136.18 525.27,129.97 544.83,126.32 565.07,111.98 567.44,103.96 582.04,99.94 587.82,88.32 606.78,82.41 611.71,106.78 
						617.2,114.38 615.18,123.86 618.54,140.44 674.99,127.11 670.57,148.03 675.49,159.88 665.92,170.06 660.09,197.68 
						666.96,216.27 671.56,228.64 680.23,234.75 678.59,247.61 683.62,261.19 664.54,263.18 655.11,258.92 648.03,264.91 
						616.18,268.24 595.4,271.24 584.72,264.56 576.44,258.92 565.07,262.26 542.48,259.62 492.3,271.09 					"/>
				</g>
				<polyline class="st2" points="589.61,63.2 693.66,53.11 754.1,147.17 				"/>
				<g>
					<polyline class="st3" points="559.34,313.33 542.09,259.23 500.53,198.07 518.5,168.54 520.05,161.77 527.78,153.3 
						530.48,141.87 539.48,141.4 544.44,125.93 618.14,141.61 633.15,162 643.74,166.04 644.35,177.22 659.7,198.07 615.79,267.85 
						685.89,346.5 					"/>
				</g>
				<g>
					<polyline class="st3" points="618.14,141.61 611.04,151.27 611.04,158.93 601.56,164.14 601.56,173.62 591.93,177.22 
						576.59,198.07 612.46,198.26 621.94,191.63 629.05,198.26 659.7,198.07 686.86,198.27 697.13,198.35 704.63,198.41 
						716.48,198.5 					"/>
				</g>
				<g>
					<polyline class="st3" points="618.14,267.85 601.56,240 599.66,225.75 587.71,216.75 576.59,198.07 567.83,213.6 
						555.59,219.59 555.59,235.29 542.09,259.23 					"/>
				</g>
				<g>
					<polyline class="st3" points="542.09,125.93 555.59,154.17 565.07,159.88 563.19,170.06 576.59,198.07 546.11,198.26 
						534.74,190.68 525.74,198.26 500.53,198.07 455.84,198.07 					"/>
				</g>
				<line class="st2" x1="476.22" y1="125.93" x2="485.63" y2="137.69"/>
				<line class="st2" x1="690.79" y1="131.81" x2="692.87" y2="53.59"/>
				<polyline class="st2" points="530.32,313.25 587.71,332.46 582.37,319.34 				"/>
				<line class="st2" x1="516.21" y1="306.47" x2="513.64" y2="284.24"/>
				<polyline class="st3" points="473.99,162 468.65,198.07 471.32,228.64 				"/>
				<line class="st2" x1="718.85" y1="268.16" x2="683.78" y2="261.05"/>
			</g>
		</g>
		<g>
			<g>
				<polygon class="st4" points="417.91,199.2 442.57,108.44 510.64,52.21 585.62,28.53 607.33,52.21 715.72,16.43 693.16,108.44 
					792.59,134.18 745.44,199.2 748.53,287.01 707.36,384.98 585.62,367.9 547.54,343.45 498.81,342.25 463.29,288.98 
					435.67,273.19 				"/>
				<polygon class="st5" points="455.4,121.26 510.64,52.21 607.33,52.21 693.16,108.44 745.44,198.22 704.01,277.14 707.36,384.98 
					548.13,343.24 463.29,288.98 417.91,198.22 				"/>
				<g>
					<polygon class="st5" points="474.14,198.22 466.42,166.53 456.47,156.23 461.11,144.73 455.4,121.26 486.01,115.55 
						497.02,119.86 504.78,112.05 529.39,107.45 554.85,89.4 557.83,79.31 576.21,74.26 583.47,59.64 607.33,52.21 613.54,82.86 
						620.44,92.43 617.9,104.36 622.12,125.21 693.16,108.44 687.6,134.77 693.78,149.67 681.75,162.48 674.41,197.23 
						683.05,220.63 688.84,236.19 699.74,243.88 697.68,260.05 704.01,277.14 680,279.65 668.14,274.29 659.23,281.83 
						619.17,286.02 593.01,289.79 579.57,281.39 569.16,274.29 554.85,278.49 526.43,275.17 463.29,289.6 					"/>
				</g>
				<polyline class="st4" points="585.73,28.51 716.64,15.34 792.7,133.68 				"/>
				<g>
					<polyline class="st5" points="547.64,342.75 525.94,274.67 473.65,197.72 496.26,160.57 498.21,152.06 507.93,141.39 
						511.33,127.01 522.65,126.42 528.9,106.96 621.63,126.69 640.51,152.34 653.83,157.42 654.61,171.49 673.92,197.72 
						618.67,285.53 706.86,384.48 					"/>
				</g>
				<g>
					<polyline class="st5" points="621.63,126.69 612.69,138.84 612.69,148.48 600.76,155.04 600.76,166.96 588.65,171.49 
						569.34,197.72 614.48,197.97 626.4,189.62 635.35,197.97 673.92,197.72 708.1,197.98 721.01,198.08 730.45,198.15 
						745.36,198.27 					"/>
				</g>
				<g>
					<polyline class="st5" points="621.63,285.53 600.76,250.49 598.38,232.55 583.34,221.23 569.34,197.72 558.32,217.26 
						542.93,224.8 542.93,244.55 525.94,274.67 					"/>
				</g>
				<g>
					<polyline class="st5" points="525.94,106.96 542.93,142.49 554.85,149.67 552.49,162.48 569.34,197.72 531,197.97 
						516.69,188.43 505.36,197.97 473.65,197.72 417.41,197.72 					"/>
				</g>
				<line class="st5" x1="443.06" y1="106.96" x2="454.9" y2="121.76"/>
				<line class="st5" x1="713.03" y1="114.36" x2="715.66" y2="15.94"/>
				<polyline class="st5" points="511.13,342.64 583.34,366.81 576.62,350.31 				"/>
				<line class="st5" x1="493.38" y1="334.11" x2="490.14" y2="306.15"/>
				<polyline class="st5" points="440.26,152.34 433.53,197.72 436.89,236.19 				"/>
				<line class="st5" x1="748.34" y1="285.92" x2="704.22" y2="276.97"/>
			</g>
		</g>
		<g>
			<circle class="st6" cx="576.44" cy="199.69" r="4.74"/>
			<circle class="st6" cx="544.22" cy="128.6" r="4.74"/>
			<circle class="st6" cx="618.15" cy="143.29" r="4.74"/>
			<circle class="st6" cx="659.85" cy="197.32" r="4.74"/>
			<circle class="st6" cx="617.2" cy="268.4" r="4.74"/>
			<circle class="st6" cx="541.38" cy="258.92" r="4.74"/>
			<circle class="st6" cx="501.09" cy="197.79" r="4.74"/>
			<circle class="st6" cx="486.88" cy="139.03" r="4.74"/>
			<circle class="st6" cx="675.49" cy="128.6" r="4.74"/>
			<circle class="st6" cx="606.3" cy="83.58" r="4.74"/>
			<circle class="st6" cx="560.33" cy="312" r="4.74"/>
			<circle class="st6" cx="468.87" cy="198.74" r="2.84"/>
			<circle class="st6" cx="684.02" cy="260.82" r="2.84"/>
		</g>
		<line class="st7" x1="542.8" y1="125.28" x2="530.48" y2="82.63"/>
	</g>
</g>
</svg>
