<?xml version="1.0" encoding="utf-8"?>
<!-- Generator: Adobe Illustrator 23.0.1, SVG Export Plug-In . SVG Version: 6.00 Build 0)  -->
<svg version="1.1" id="Layer_5" xmlns="http://www.w3.org/2000/svg" xmlns:xlink="http://www.w3.org/1999/xlink" x="0px" y="0px"
	 viewBox="0 0 1200 398" style="enable-background:new 0 0 1200 398;" xml:space="preserve">
<style type="text/css">
	.st0{fill:none;stroke:url(#SVGID_1_);stroke-width:0.6054;stroke-miterlimit:10;}
	.st1{fill:url(#SVGID_2_);}
	.st2{fill:none;stroke:url(#SVGID_3_);stroke-width:0.6871;stroke-miterlimit:10;}
	.st3{fill:none;stroke:url(#SVGID_4_);stroke-width:0.6871;stroke-miterlimit:10;}
	.st4{fill:url(#SVGID_5_);}
	.st5{fill:url(#SVGID_6_);}
	.st6{fill:#4E59EB;}
	.st7{fill:#FFFFFF;}
	.st8{font-family:'Play-Regular';}
	.st9{font-size:21.1898px;}
	.st10{fill:#94FF4B;}
</style>
<g>
	<g>
		<linearGradient id="SVGID_1_" gradientUnits="userSpaceOnUse" x1="329.4194" y1="249.7048" x2="479.5827" y2="148.9855">
			<stop  offset="0.0901" style="stop-color:#647DFE"/>
			<stop  offset="1" style="stop-color:#ABE5CD"/>
		</linearGradient>
		<path class="st0" d="M454.35,111.51c-5.34,1.76-10.47,4.11-15.31,7.28c-6.29,4.12-11.58,9.29-16.66,14.74
			c-9.62,11.89-16.57,25.33-22.57,39.29c-4.31,10.03-8.49,20.13-12.62,30.24c-4.05,9.9-8.66,19.49-14.53,28.46
			c-3.43,5.24-7.75,9.65-12.22,13.95c-2.53,1.82-4.57,3.32-7.33,4.5 M353.31,285.13c2.98-0.69,5.93-1.59,8.83-2.72c0,0,0,0,0,0
			c10.04-3.09,18.32-9.09,25.94-16.07c9.46-8.67,15.57-19.79,21.83-30.76c2.02-3.54,3.18-7.57,5.11-11.09
			c5.44-9.93,8.48-20.81,13.12-31.05c2.45-5.4,4.72-10.87,7.54-16.08c0.18-1.09,0.59-2.07,1.21-2.98c2.14-4.11,4.26-8.24,7.1-11.93
			c2.43-4.69,6.17-8.35,9.84-12c0.18-0.18,0.36-0.35,0.55-0.52"/>
	</g>
	<linearGradient id="SVGID_2_" gradientUnits="userSpaceOnUse" x1="740.282" y1="191.1506" x2="848.1642" y2="191.1506">
		<stop  offset="0.0901" style="stop-color:#647DFE"/>
		<stop  offset="1" style="stop-color:#ABE5CD"/>
	</linearGradient>
	<path class="st1" d="M848.16,227.64c-5.04-2.48-13.15-8.57-17.15-12.45c-7.63-7.41-13.95-15.9-20.14-24.49
		c-7.13-9.89-13.97-20-21.42-29.66c-4.44-5.76-8.96-11.45-14.39-16.34c-0.13,0.08-0.27,0.11-0.42,0.1c-0.02-0.17,0-0.34,0.06-0.49
		c-0.69-0.73-1.33-1.51-2.07-2.19c-9.24-8.52-19.7-14.67-32.36-16.5l0.12,28.78c2.46,0.8,5.05,2.1,7.23,3.65
		c4.78,3.39,9,7.38,12.88,11.77c4.41,4.98,8.2,10.44,12.41,15.57c9.51,13.55,18.71,27.34,29.42,40c5.03,5.95,10.45,11.52,16.55,16.4
		c8.08,6.47,19.04,12.79,29.26,14.93V227.64z"/>
	<linearGradient id="SVGID_3_" gradientUnits="userSpaceOnUse" x1="740.616" y1="171.6466" x2="848.9055" y2="171.6466">
		<stop  offset="0" style="stop-color:#4AD895"/>
		<stop  offset="0.9099" style="stop-color:#E94585"/>
		<stop  offset="0.9946" style="stop-color:#606060"/>
	</linearGradient>
	<path class="st2" d="M848.75,226.93c-5.72-2.82-10.56-6.84-15.1-11.25c-8.66-8.41-15.83-18.04-22.86-27.79
		c-8.09-11.23-15.85-22.69-24.3-33.66c-5.03-6.53-10.16-13-16.33-18.55c-0.15,0.09-0.31,0.12-0.48,0.11c-0.03-0.19,0-0.38,0.07-0.56
		c-0.78-0.83-1.51-1.71-2.35-2.48c-7.94-7.32-16.68-13.1-26.68-16.38"/>
	<linearGradient id="SVGID_4_" gradientUnits="userSpaceOnUse" x1="740.6352" y1="206.2558" x2="847.8613" y2="206.2558">
		<stop  offset="0" style="stop-color:#4AD895"/>
		<stop  offset="0.9099" style="stop-color:#E94585"/>
		<stop  offset="0.9946" style="stop-color:#606060"/>
	</linearGradient>
	<path class="st3" d="M740.84,152.16c4.69,3.55,8.9,7.61,12.81,12.03c5,5.65,9.31,11.84,14.09,17.67
		c10.8,15.38,21.23,31.02,33.39,45.39c5.71,6.75,11.86,13.07,18.78,18.61c8.37,6.7,17.52,11.76,27.87,14.44"/>
	<linearGradient id="SVGID_5_" gradientUnits="userSpaceOnUse" x1="369.1807" y1="221.3185" x2="466.0547" y2="156.3421">
		<stop  offset="0.0901" style="stop-color:#647DFE"/>
		<stop  offset="1" style="stop-color:#ABE5CD"/>
	</linearGradient>
	<path class="st4" d="M352.72,271.08c6.3-0.29,8.2-1.41,14.09-3.71c0,0,0,0,0,0c8.17-2.52,14.91-7.4,21.11-13.08
		c7.7-7.06,12.67-16.1,17.77-25.03c1.64-2.88,2.59-6.16,4.16-9.02c4.43-8.08,6.9-16.94,10.67-25.26c1.99-4.39,3.84-8.84,6.14-13.09
		c0.14-0.88,0.48-1.69,0.98-2.42c1.74-3.35,3.47-6.7,5.78-9.71c1.98-3.82,5.02-6.8,8.01-9.76c0.92-0.91,2.07-1.76,3.3-2.49
		c3.08-1.83,6.31-2.93,9.67-3.54l-0.04-28.43c-0.72,0.05-1.44,0.12-2.16,0.21c-8.12,1.44-15.83,3.92-22.8,8.48
		c-5.12,3.35-9.43,7.56-13.56,11.99c-7.83,9.67-13.48,20.61-18.36,31.97c-3.51,8.17-6.91,16.38-10.27,24.6
		c-3.29,8.06-7.05,15.86-11.82,23.16c-2.79,4.26-6.3,7.86-9.95,11.35c-4.86,3.5-6.63,5.57-12.61,6.05"/>
	<linearGradient id="SVGID_6_" gradientUnits="userSpaceOnUse" x1="560.1409" y1="104.445" x2="637.0309" y2="182.8805">
		<stop  offset="0.0901" style="stop-color:#647DFE"/>
		<stop  offset="1" style="stop-color:#ABE5CD"/>
	</linearGradient>
	<rect x="540.61" y="128.35" class="st5" width="113.82" height="28.45"/>
	<g>
		<path class="st6" d="M535.85,185.86H459.4c-2.63,0-4.76-2.13-4.76-4.76v-76.45c0-2.63,2.13-4.76,4.76-4.76h76.45
			c2.63,0,4.76,2.13,4.76,4.76v76.45C540.61,183.73,538.48,185.86,535.85,185.86z"/>
		<text transform="matrix(1 0 0 1 467.6194 129.7707)" class="st7 st8 st9">Link 2</text>
	</g>
	<g>
		<path class="st6" d="M348.17,300.89h-76.45c-2.63,0-4.76-2.13-4.76-4.76v-76.45c0-2.63,2.13-4.76,4.76-4.76h76.45
			c2.63,0,4.76,2.13,4.76,4.76v76.45C352.93,298.76,350.8,300.89,348.17,300.89z"/>
		<text transform="matrix(1 0 0 1 279.9387 244.801)" class="st7 st8 st9">Link 1</text>
	</g>
	<g>
		<path class="st6" d="M735.64,185.86h-76.45c-2.63,0-4.76-2.13-4.76-4.76v-76.45c0-2.63,2.13-4.76,4.76-4.76h76.45
			c2.63,0,4.76,2.13,4.76,4.76v76.45C740.4,183.73,738.27,185.86,735.64,185.86z"/>
		<text transform="matrix(1 0 0 1 667.4094 129.7707)" class="st7 st8 st9">Link 3</text>
	</g>
	<g>
		<path class="st6" d="M929.37,285.15h-76.45c-2.63,0-4.76-2.13-4.76-4.76v-76.45c0-2.63,2.13-4.76,4.76-4.76h76.45
			c2.63,0,4.76,2.13,4.76,4.76v76.45C934.13,283.02,932,285.15,929.37,285.15z"/>
		<text transform="matrix(1 0 0 1 861.1438 229.0607)" class="st7 st8 st9">Link n</text>
	</g>
	<circle class="st10" cx="352.32" cy="257.91" r="4.54"/>
	<circle class="st10" cx="541.22" cy="141.67" r="4.54"/>
	<circle class="st10" cx="740.4" cy="140.46" r="4.54"/>
</g>
</svg>
