<?xml version="1.0" encoding="utf-8"?>
<!-- Generator: Adobe Illustrator 23.0.1, SVG Export Plug-In . SVG Version: 6.00 Build 0)  -->
<svg version="1.1" id="Layer_3" xmlns="http://www.w3.org/2000/svg" xmlns:xlink="http://www.w3.org/1999/xlink" x="0px" y="0px"
	 viewBox="0 0 1200 398" style="enable-background:new 0 0 1200 398;" xml:space="preserve">
<style type="text/css">
	.st0{fill:#4E59EB;}
	.st1{fill:#FFFFFF;}
	.st2{font-family:'Play-Regular';}
	.st3{font-size:29.6134px;}
	.st4{fill:#94FF4B;}
	.st5{fill:none;stroke:#BABABA;stroke-width:0.4586;stroke-miterlimit:10;}
	.st6{font-size:14.4343px;}
	.st7{fill:#BABABA;}
</style>
<g>
	<g>
		<path class="st0" d="M673.34,98.12H529.18c-2.14,0-3.88-1.74-3.88-3.88V31.92c0-2.14,1.74-3.88,3.88-3.88h144.16
			c2.14,0,3.88,1.74,3.88,3.88v62.32C677.22,96.39,675.48,98.12,673.34,98.12z"/>
		<text transform="matrix(1 0 0 1 537.5798 73.6194)" class="st1 st2 st3">RM</text>
	</g>
	<g>
		<path class="st0" d="M490.68,210.67h-63.5c-2.14,0-3.88-1.74-3.88-3.88v-58.08c0-2.14,1.74-3.88,3.88-3.88h63.5
			c2.14,0,3.88,1.74,3.88,3.88v58.08C494.56,208.94,492.82,210.67,490.68,210.67z"/>
		<text transform="matrix(1 0 0 1 437.282 188.2922)" class="st1 st2 st3">RM</text>
	</g>
	<g>
		<path class="st0" d="M566.84,370.3h-63.5c-2.14,0-3.88-1.74-3.88-3.88v-58.08c0-2.14,1.74-3.88,3.88-3.88h63.5
			c2.14,0,3.88,1.74,3.88,3.88v58.08C570.72,368.56,568.98,370.3,566.84,370.3z"/>
		<text transform="matrix(1 0 0 1 513.4397 347.9192)" class="st1 st2 st3">RM</text>
	</g>
	<g>
		<path class="st0" d="M699.08,369.88h-63.5c-2.14,0-3.88-1.74-3.88-3.88v-58.08c0-2.14,1.74-3.88,3.88-3.88h63.5
			c2.14,0,3.88,1.74,3.88,3.88V366C702.96,368.14,701.23,369.88,699.08,369.88z"/>
		<text transform="matrix(1 0 0 1 645.6833 347.4954)" class="st1 st2 st3">RM</text>
	</g>
	<g>
		<path class="st0" d="M775.12,210.67h-63.5c-2.14,0-3.88-1.74-3.88-3.88v-58.08c0-2.14,1.74-3.88,3.88-3.88h63.5
			c2.14,0,3.88,1.74,3.88,3.88v58.08C779,208.94,777.27,210.67,775.12,210.67z"/>
		<text transform="matrix(1 0 0 1 721.7234 188.2922)" class="st1 st2 st3">RM</text>
	</g>
	<g>
		<g>
			<path class="st4" d="M582.8,64.71c3.34,0.26,7.41-0.79,9.35-3.72c2.21-3.34,1.23-12.05,5.68-13.28c0.79-0.22,0.45-1.45-0.34-1.23
				c-3.68,1.02-4.12,5.89-4.82,9c-0.64,2.85-1.25,5.48-4.1,6.93c-1.72,0.88-3.85,1.18-5.77,1.03
				C581.99,63.37,581.99,64.65,582.8,64.71L582.8,64.71z"/>
		</g>
	</g>
	<g>
		<g>
			<path class="st4" d="M582.8,64.74c1.91-0.15,4.06,0.14,5.77,1.03c2.83,1.47,3.46,4.07,4.1,6.93c0.7,3.11,1.14,7.98,4.82,9
				c0.79,0.22,1.13-1.01,0.34-1.23c-4.46-1.24-3.46-9.95-5.68-13.28c-1.95-2.93-6-3.99-9.35-3.72
				C581.99,63.53,581.98,64.81,582.8,64.74L582.8,64.74z"/>
		</g>
	</g>
	<g>
		<g>
			<path class="st4" d="M582.8,64.71c4.95,0,9.91,0,14.86,0c0.82,0,0.82-1.27,0-1.27c-4.95,0-9.91,0-14.86,0
				C581.98,63.44,581.98,64.71,582.8,64.71L582.8,64.71z"/>
		</g>
	</g>
	<circle class="st4" cx="584.5" cy="64.08" r="2.55"/>
	<circle class="st4" cx="601.26" cy="98.04" r="2.55"/>
	<circle class="st4" cx="494.07" cy="177.85" r="2.55"/>
	<circle class="st4" cx="708.04" cy="177.85" r="2.55"/>
	<circle class="st4" cx="667.33" cy="304.37" r="2.55"/>
	<circle class="st4" cx="535.09" cy="304.79" r="2.55"/>
	<polygon class="st5" points="601.06,102.71 498.84,176.98 537.88,297.16 664.24,297.16 703.29,176.98 	"/>
	<text transform="matrix(1 0 0 1 599.7742 49.676)" class="st1 st2 st6">Memory</text>
	<text transform="matrix(1 0 0 1 600.1985 68.7805)" class="st1 st2 st6">GPU</text>
	<text transform="matrix(1 0 0 1 600.1985 87.4602)" class="st1 st2 st6">Bandwidth</text>
	<g>
		<g>
			<path class="st7" d="M499.14,177.79c18.58,13.46,37.15,26.92,55.73,40.39c29.48,21.36,58.96,42.73,88.44,64.09
				c6.83,4.95,13.67,9.91,20.5,14.86c0.49,0.35,1.19-0.23,1.01-0.78c-7.08-21.76-14.16-43.52-21.24-65.27
				c-11.28-34.68-22.57-69.35-33.85-104.03c-2.59-7.96-5.18-15.91-7.77-23.87c-0.21-0.65-1.11-0.65-1.33,0
				c-7.11,21.76-14.21,43.52-21.32,65.27c-11.32,34.68-22.65,69.35-33.97,104.03c-2.6,7.96-5.2,15.91-7.79,23.87
				c-0.18,0.54,0.52,1.13,1.01,0.78c18.51-13.42,37.01-26.83,55.52-40.25c29.5-21.38,58.99-42.76,88.49-64.15
				c6.77-4.91,13.54-9.81,20.3-14.72c0.53-0.38,0.38-1.28-0.35-1.28c-22.87-0.03-45.74-0.05-68.6-0.08
				c-36.45-0.04-72.89-0.08-109.34-0.12c-8.36-0.01-16.73-0.02-25.09-0.03c-0.89,0-0.89,1.37,0,1.38
				c22.87,0.03,45.74,0.05,68.6,0.08c36.45,0.04,72.89,0.08,109.34,0.12c8.36,0.01,16.73,0.02,25.09,0.03
				c-0.12-0.43-0.23-0.85-0.35-1.28c-18.51,13.42-37.01,26.83-55.52,40.25c-29.5,21.38-58.99,42.76-88.49,64.15
				c-6.77,4.91-13.54,9.81-20.3,14.72c0.34,0.26,0.67,0.52,1.01,0.78c7.11-21.76,14.21-43.52,21.32-65.27
				c11.32-34.68,22.65-69.35,33.97-104.03c2.6-7.96,5.2-15.91,7.79-23.87c-0.44,0-0.88,0-1.33,0c7.08,21.76,14.16,43.52,21.24,65.27
				c11.28,34.68,22.57,69.35,33.85,104.03c2.59,7.96,5.18,15.91,7.77,23.87c0.34-0.26,0.67-0.52,1.01-0.78
				c-18.58-13.46-37.15-26.92-55.73-40.39c-29.48-21.36-58.96-42.73-88.44-64.09c-6.83-4.95-13.67-9.91-20.5-14.86
				C499.12,176.08,498.43,177.28,499.14,177.79z"/>
		</g>
	</g>
</g>
</svg>
