<?xml version="1.0" encoding="utf-8"?>
<!-- Generator: Adobe Illustrator 22.1.0, SVG Export Plug-In . SVG Version: 6.00 Build 0)  -->
<svg version="1.1" id="Layer_1" xmlns="http://www.w3.org/2000/svg" xmlns:xlink="http://www.w3.org/1999/xlink" x="0px" y="0px"
	 viewBox="0 0 512 512" style="enable-background:new 0 0 512 512;" xml:space="preserve">
<style type="text/css">
	.st0{fill:#720F1B;}
	.st1{fill:#73C061;}
	.st2{fill:none;stroke:#8E1B24;stroke-width:2.0108;stroke-miterlimit:10;}
	.st3{fill:#E11F26;}
</style>
<g>
	<path class="st0" d="M84.6,323.3c-22.7-25.5-55.5-86.7-10.8-162.7c7-11.9,15.8-22.8,25.7-32.7L87.3,98.3L76.6,73.9
		C-29.5,170.6,9.7,260.3,40,315.9c31.5,57.7,96.9,45.1,96.9,45.1S99.6,340.1,84.6,323.3z"/>
	<path class="st0" d="M98,21.8l29.6,64.3c0,0,145.3-38.4,236.9,13.9c87.3,49.9,89.5,129.1,81.5,167.3c-5.3,25.1-30.4,66.9-30.4,66.9
		s68-36.6,66.5-111.7S471.6,42.5,293,11.7C193.4-5.5,98,21.8,98,21.8z"/>
	<circle class="st1" cx="256.4" cy="233.4" r="63"/>
	<path class="st2" d="M456.9,367.6"/>
	<path class="st3" d="M510.3,223.1c-9.5-96-80-149.2-80-149.2c23.2,42.8,39,144.1,12.2,206.3c-49.8,115.5-137.3,136.1-137.3,136.1
		l2.3,8.7l34.1,82c24.3-11.5,82.5-43.5,124.7-102.9C482,382.1,520.5,326.3,510.3,223.1z"/>
	<path class="st3" d="M242.5,377.5c-25.4,2.5-83.1,1.1-149.7-46c-55.4-39.1-79.4-119.5-80.4-162.1c0,0-30.4,71.1,4.1,148.2
		c37.1,82.9,90.7,108.6,112.2,118.5c67.1,31,134.4,24.8,148,23.2L242.5,377.5z"/>
</g>
</svg>
