<?xml version="1.0" encoding="utf-8"?>
<!-- Generator: Adobe Illustrator 23.0.1, SVG Export Plug-In . SVG Version: 6.00 Build 0)  -->
<svg version="1.1" id="Layer_1" xmlns="http://www.w3.org/2000/svg" xmlns:xlink="http://www.w3.org/1999/xlink" x="0px" y="0px"
	 viewBox="0 0 256 256" style="enable-background:new 0 0 256 256;" xml:space="preserve">
<style type="text/css">
	.st0{fill:#32FF10;}
	.st1{fill:#D1D1D1;}
	.st2{fill:#3DC535;}
</style>
<g>
	<path class="st0" d="M173.76,210.23c-14.78,8.06-31.89,12.09-49.86,11.22c-49.28-2.59-88.7-43.17-89.57-92.1
		c-0.87-52.38,41.74-94.98,94.21-94.98c15.07,0,29.57,3.45,42.32,9.79c6.67,3.17,14.49,2.3,19.71-2.88l0,0
		c8.41-8.06,6.09-21.87-4.35-27.05c-14.2-6.91-34.2-13.81-57.68-13.81C56.66,0.42-1.32,59.13,0.42,131.08
		c1.74,68.79,58.84,124.05,127.83,124.33c22.32,0,43.19-5.47,61.45-15.25c9.86-5.18,12.17-18.13,4.64-26.19l0,0
		C189.13,207.93,180.72,206.49,173.76,210.23z"/>
	<g>
		<g>
			<path class="st1" d="M61.58,213.68L61.58,213.68c-7.54,8.06-5.22,21.01,4.64,26.19c18.26,9.79,39.13,15.54,61.45,15.25
				c69.28-0.29,126.38-55.84,127.83-124.33C257.24,59.13,198.98,0.42,127.09,0.42c-23.48,0-43.48,6.91-57.68,13.81
				c-10.44,5.18-12.75,19-4.35,27.05l0,0c5.22,5.18,13.04,6.04,19.71,2.88c12.75-6.33,26.96-9.79,42.32-9.79
				c52.47,0,95.08,42.6,94.21,94.98c-0.58,48.93-40.29,89.8-89.57,92.1c-18.26,0.86-35.36-3.17-49.86-11.22
				C75.21,206.49,66.8,207.93,61.58,213.68z"/>
		</g>
	</g>
	<g>
		<path class="st2" d="M173.76,210.23c-13.71,7.47-29.43,11.43-45.97,11.28c-16.77,0.15-32.47-3.81-45.92-11.28
			c-6.67-3.74-15.07-2.3-20.29,3.45c-6.21,6.64-5.72,16.58,0.15,22.78c15.23,9.34,32.53,15.58,50.98,17.91
			c4.91,0.53,9.89,0.82,14.96,0.75c24.71-0.1,47.84-7.26,67.48-19.5c4.93-6.23,5.03-15.41-0.81-21.66
			C189.13,207.93,180.72,206.49,173.76,210.23z"/>
		<path class="st2" d="M84.77,44.16c12.75-6.33,26.96-9.79,42.32-9.79c0.24,0,0.48,0.02,0.72,0.02c0.24,0,0.48-0.02,0.72-0.02
			c15.07,0,29.57,3.45,42.32,9.79c6.67,3.17,14.49,2.3,19.71-2.88c7.3-7,6.5-18.33-0.66-24.58c-16.63-9.27-35.54-14.99-55.68-16.08
			c-0.72-0.03-1.44-0.06-2.16-0.08c-1.41-0.05-2.83-0.1-4.26-0.11c-1.43,0.01-2.84,0.05-4.26,0.11c-0.72,0.02-1.44,0.04-2.15,0.08
			c-20.22,1.1-39.17,6.86-55.81,16.21c-7.04,6.28-7.78,17.5-0.53,24.46C70.28,46.47,78.11,47.33,84.77,44.16z"/>
	</g>
</g>
</svg>
